# xmcd
#
# Track frame offsets: 
#        150
#        15868
#        37790
#        63696
#        81245
#        96602
#        118100
#        136119
#        153857
#        167895
#
# Disc length: 2415 seconds
#
# Revision: 0
# Processed by: cddbd v1.5.2PL0 Copyright (c) Steve Scherf et al.
# Submitted via: ExactAudioCopyFreeDBPlugin 1.0
#
DISCID=78096d0a
DTITLE=Benny King - A Tribute To My Brother Freddie King
DYEAR=2011
DGENRE=Blues
TTITLE0=Boogie Man
TTITLE1=Let The Good Times Roll
TTITLE2=Have You Ever Loved A Woman
TTITLE3=Goin' Down
TTITLE4=You Can Run
TTITLE5=Same Old Blues
TTITLE6=Me And My Guitar
TTITLE7=Tore Down
TTITLE8=Lowdown In Lodi
TTITLE9=Hideaway
EXTD=
EXTT0=
EXTT1=
EXTT2=
EXTT3=
EXTT4=
EXTT5=
EXTT6=
EXTT7=
EXTT8=
EXTT9=
PLAYORDER=
